<svg xmlns="http://www.w3.org/2000/svg"  version="1.1" x="0px" y="0px" viewBox="0 0 144 144" style="enable-background:new 0 0 144 144;">
<style>
    path {
      fill: #000;
      stroke-width: 3px;
      stroke: #000
    }
    @media (prefers-color-scheme: dark) {
      path {
        fill: #fff;
        stroke: #fff;
        stroke-width: 3px
      }
    }
  </style>
<g><path d="M32.5,78.3h17.4l-8.6-25.5L32.5,78.3z M35.3,76.3L41.2,59l5.9,17.3H35.3z"></path><path d="M98.1,63.5c-3.3,0-6,1.1-8,3.3l0,0c-2,2.2-3,5.2-3,8.9c0,3.8,1,6.8,3,8.9c2,2.2,4.7,3.3,8,3.3c3.2,0,5.9-1.1,8-3.4   c2.1-2.2,3.1-5.2,3.1-8.8c0-3.7-1-6.7-3.1-8.9C104.1,64.6,101.4,63.5,98.1,63.5z M104.7,83.1c-1.7,1.8-3.8,2.7-6.6,2.7   c-2.8,0-4.9-0.9-6.6-2.6c-1.7-1.8-2.5-4.3-2.5-7.6c0-3.2,0.8-5.8,2.5-7.6c1.7-1.8,3.8-2.6,6.6-2.6c2.7,0,4.8,0.9,6.6,2.7   c1.7,1.8,2.6,4.3,2.6,7.5C107.3,78.8,106.4,81.3,104.7,83.1z"></path><path d="M144,41.8v-2H34.5l3.4-9.3h66.8v-2H38.7L49.2,0.1L47.1,0L36.6,28.5H0v2h35.8L10.4,99.6h17L31,89h20.4L55,99.6h15l3.6,9.9H0   v2h74.4l8.3,22.6l1.9-0.7l-8.1-21.9h44.7V144h2v-32.5H144v-2h-20.7v-9.9V53.3v-1.6h-16v5.7c-1.1-1.4-2.5-2.7-4.1-3.7l0,0   c-2.7-1.7-5.9-2.5-9.6-2.5c-4,0-7.6,1-10.7,3c-3.1,2-5.6,4.9-7.4,8.6c-1.8,3.7-2.7,8-2.7,13c0,4.9,0.9,9.3,2.7,13   c1.8,3.7,4.3,6.6,7.4,8.6c3.1,2,6.7,3,10.7,3c3.7,0,6.9-0.9,9.6-2.5c1.6-1,3-2.2,4.1-3.7v5.7h14v9.9H75.8L66.4,84l0,0L50.8,41.8   H144z M109.3,97.6v-7.3l-1.9-0.4c-1.1,2.5-2.9,4.6-5.2,6.1c-2.4,1.5-5.2,2.2-8.5,2.2c-3.6,0-6.8-0.9-9.6-2.7   c-2.8-1.8-5.1-4.4-6.7-7.8c-1.7-3.4-2.5-7.5-2.5-12.1c0-4.7,0.8-8.7,2.5-12.1c1.6-3.4,3.9-6,6.7-7.7c2.8-1.8,6.1-2.7,9.6-2.7   c3.3,0,6.2,0.8,8.5,2.2c2.3,1.5,4.1,3.5,5.2,6.1l1.9-0.4v-7.3h12v44H109.3z M69,97l0.2,0.6H56.4L52.8,87H29.6l-3.6,10.6H13.3   l20.6-55.8h14.8L69,97z"></path></g></svg>